<svg width="680" height="219" viewBox="0 0 680 219" fill="none" xmlns="http://www.w3.org/2000/svg">
<path fill-rule="evenodd" clip-rule="evenodd" d="M595.605 209.079C604.935 212.088 614.168 213.592 623.304 213.592C660.918 213.592 679.724 198.647 679.724 168.756C679.724 158.469 677.149 149.88 671.997 142.99C666.846 136.099 658.585 130.762 647.214 126.977L621.701 169.483C625.713 170.895 628.872 172.206 631.177 173.414C635.065 175.355 637.008 177.587 637.008 180.11C637.008 182.731 635.891 184.769 633.655 186.224C631.517 187.68 627.532 188.408 621.701 188.408C613.634 188.408 605.713 187.243 597.937 184.914C590.259 182.585 584.768 179.819 581.463 176.617L577.673 200.054C580.297 202.965 586.274 205.974 595.605 209.079ZM612.224 166.427C589.579 159.633 578.256 145.562 578.256 124.211C578.256 115.477 580.783 108.004 585.837 101.793C590.891 95.4849 597.354 90.9236 605.227 88.1093C613.099 85.2949 621.895 83.8877 631.614 83.8877C648.234 83.8877 660.48 86.9447 668.353 93.0587L670.977 95.5334L664.562 116.35C658.148 110.042 649.303 106.888 638.029 106.888C628.796 106.888 624.179 109.605 624.179 115.04C624.179 116.593 624.519 117.903 625.2 118.97C625.88 119.941 626.998 120.814 628.553 121.591C630.205 122.27 631.809 122.852 633.364 123.338C634.919 123.726 637.106 124.308 639.924 125.084L612.224 166.427Z" fill="#43310B"/>
<path d="M577.675 184.914C538.953 209.934 538.95 163.307 573.121 164.931C554.899 178.823 565.628 184.956 577.675 184.914Z" fill="#43310B"/>
<path d="M93.3632 187.272C100.264 187.272 105.318 185.331 108.525 181.449C111.732 177.567 113.336 172.957 113.336 167.62V157.43C113.336 151.122 111.295 146.657 107.213 144.037C103.131 141.32 98.5143 139.961 93.3632 139.961H81.9917V187.272H93.3632ZM111.295 88.8654C111.295 83.0426 109.691 79.0151 106.484 76.783C103.277 74.4538 98.6601 73.2893 92.6342 73.2893H81.9917V115.359H93.8005C99.4377 115.359 103.763 113.176 106.776 108.809C109.789 104.345 111.295 98.9099 111.295 92.5047V88.8654ZM103.277 217.114C95.6958 217.114 85.8794 216.92 73.8276 216.532C61.7759 216.143 53.1258 215.901 47.8774 215.804H33.8818V45.1939H59.1031C65.2262 45.1939 72.224 44.9998 80.0965 44.6116C87.969 44.1264 93.6547 43.8838 97.1536 43.8838C108.525 43.8838 118.098 44.8057 125.874 46.6496C133.746 48.4936 139.918 51.2594 144.389 54.9472C148.86 58.635 152.018 62.9052 153.865 67.7575C155.809 72.6099 156.781 78.3843 156.781 85.0806C156.781 95.3676 154.4 104.199 149.637 111.575C144.875 118.95 137.974 123.56 128.935 125.404C151.873 127.442 163.341 140.883 163.341 165.727C163.341 173.2 162.224 179.993 159.988 186.107C157.753 192.124 154.302 197.51 149.637 202.266C145.069 206.924 138.849 210.563 130.976 213.184C123.104 215.804 113.871 217.114 103.277 217.114Z" fill="#43310B"/>
<path d="M1.53143 2C22.0328 42.942 83.338 20.1965 90.1718 54.3148C41.6703 63.413 40.2577 36.1185 10.6421 56.5895C17.4751 36.1185 -0.749215 42.942 1.53143 2Z" fill="#43310B" stroke="#43310B"/>
<path d="M172.646 2C152.144 42.942 90.8392 20.1965 84.0054 54.3148C132.507 63.413 133.92 36.1185 163.535 56.5895C156.702 36.1185 174.926 42.942 172.646 2Z" fill="#43310B" stroke="#43310B"/>
<path d="M259.332 197.362C258.749 198.721 257.534 200.516 255.687 202.748C253.938 204.98 250.262 209.456 247.346 212.173C245.068 209.898 242.511 198.956 238.235 200.8C233.958 202.741 224.385 196.251 220.011 196.251C206.307 196.251 194.054 191.58 194.954 201.77C189.122 193.618 186.73 185.814 186.73 166.792V114.969L181.627 109.728V92.9873H234.548V175.963C234.451 180.33 235.18 183.581 236.735 185.716C238.29 187.754 241.108 188.773 245.19 188.773C245.773 188.773 246.308 188.773 246.794 188.773C247.28 188.676 247.766 188.579 248.252 188.482C248.738 188.288 249.127 188.143 249.418 188.045C249.807 187.948 250.244 187.803 250.73 187.609C251.216 187.318 251.605 187.075 251.897 186.881C252.188 186.687 252.577 186.444 253.063 186.153C253.549 185.765 253.889 185.474 254.083 185.28C254.375 185.086 254.764 184.794 255.25 184.406C255.833 183.921 256.27 183.581 256.562 183.387V114.969L248.689 109.728V92.9873H304.234V199.343L279.237 200.8L259.332 197.362Z" fill="#43310B"/>
<path d="M174.455 219.003V189.434H247.349V212.179C210.902 196.257 188.123 196.257 174.455 219.003Z" fill="#43310B"/>
<path d="M174.455 219.003V189.434H247.349V212.179C210.902 196.257 188.123 196.257 174.455 219.003Z" stroke="#43310B"/>
<path d="M320.243 219.003V189.434H247.349V212.179C283.796 196.257 306.575 196.257 320.243 219.003Z" fill="#43310B"/>
<path d="M320.243 219.003V189.434H247.349V212.179C283.796 196.257 306.575 196.257 320.243 219.003Z" stroke="#43310B"/>
<path fill-rule="evenodd" clip-rule="evenodd" d="M404.069 214.714H357.267L357.271 116.599V90.9783V78.3135C357.271 68.5117 358.631 60.02 361.353 52.8385C364.074 45.657 367.865 40.0767 372.724 36.0978C377.681 32.1188 383.124 29.2559 389.052 27.509C395.078 25.6651 401.785 24.7432 409.171 24.7432C415.78 24.7432 422 25.6166 427.832 27.3635C433.663 29.1103 437.308 30.7116 438.766 32.1673L433.226 54.2942C428.561 51.9651 423.75 50.8005 418.793 50.8005C417.53 50.8005 416.363 50.8975 415.294 51.0916C407.81 52.2562 404.069 58.6128 404.069 70.1615V90.9783V116.599V214.714Z" fill="#43310B"/>
<path d="M431.86 102.078H338.465L329.353 131.647H418.192L431.86 102.078Z" fill="#43310B" stroke="#43310B"/>
<path d="M575.372 38.3953L591.318 47.4935L586.762 17.9243L604.986 11.1006L611.819 27.0225L591.318 47.4935L611.819 42.9444L607.264 61.1408L566.261 92.9846L575.372 38.3953Z" fill="#43310B"/>
<path fill-rule="evenodd" clip-rule="evenodd" d="M517.967 214.714H471.165L471.169 116.599V90.9783V78.3135C471.169 68.5117 472.53 60.02 475.251 52.8385C477.973 45.657 481.763 40.0767 486.623 36.0978C491.579 32.1188 497.022 29.2559 502.951 27.509C508.977 25.6651 515.683 24.7432 523.07 24.7432C529.679 24.7432 535.899 25.6166 541.73 27.3635C547.562 29.1103 551.207 30.7116 552.664 32.1673L547.124 54.2942C542.459 51.9651 537.648 50.8005 532.691 50.8005C531.428 50.8005 530.262 50.8975 529.193 51.0916C521.709 52.2562 517.967 58.6128 517.967 70.1615V90.9783V116.599V214.714Z" fill="#43310B"/>
<path d="M545.758 102.078H452.363L443.251 131.647H532.091L545.758 102.078Z" fill="#43310B" stroke="#43310B"/>
</svg>
