<svg width="103" height="45" viewBox="0 0 103 45" fill="none" xmlns="http://www.w3.org/2000/svg">
<path fill-rule="evenodd" clip-rule="evenodd" d="M90.3451 33.1522C91.7487 33.6047 93.1378 33.831 94.5122 33.831C100.171 33.831 103 31.5827 103 27.086C103 25.5384 102.612 24.2464 101.837 23.2098C101.063 22.1732 99.8197 21.3702 98.109 20.8009L94.2709 27.1953C94.8746 27.4079 95.3498 27.605 95.6965 27.7868C96.2814 28.0788 96.5738 28.4146 96.5738 28.7941C96.5738 29.1883 96.4056 29.4949 96.0693 29.7139C95.7477 29.9329 95.1482 30.0424 94.2709 30.0424C93.0573 30.0424 91.8657 29.8672 90.696 29.5168C89.5409 29.1664 88.7148 28.7504 88.2177 28.2686L87.6474 31.7944C88.0422 32.2324 88.9414 32.685 90.3451 33.1522ZM92.8453 26.7356C89.4386 25.7136 87.7352 23.5967 87.7352 20.3848C87.7352 19.0708 88.1153 17.9466 88.8756 17.0122C89.6359 16.0633 90.6083 15.3771 91.7926 14.9537C92.9769 14.5303 94.3002 14.3186 95.7623 14.3186C98.2625 14.3186 100.105 14.7785 101.289 15.6983L101.684 16.0706L100.719 19.2022C99.7539 18.2532 98.4234 17.7787 96.7273 17.7787C95.3383 17.7787 94.6438 18.1875 94.6438 19.0051C94.6438 19.2387 94.6949 19.4358 94.7973 19.5964C94.8996 19.7424 95.0678 19.8738 95.3017 19.9906C95.5503 20.0928 95.7915 20.1804 96.0255 20.2534C96.2594 20.3118 96.5884 20.3994 97.0124 20.5162L92.8453 26.7356Z" fill="#43310B"/>
<path d="M87.6478 29.5168C81.8225 33.2808 81.822 26.2663 86.9627 26.5106C84.2215 28.6005 85.8354 29.5231 87.6478 29.5168Z" fill="#43310B"/>
<path d="M14.7886 29.872C15.8267 29.872 16.587 29.58 17.0695 28.996C17.552 28.412 17.7933 27.7186 17.7933 26.9156V25.3826C17.7933 24.4337 17.4862 23.7621 16.8721 23.3679C16.258 22.9591 15.5635 22.7547 14.7886 22.7547H13.0779V29.872H14.7886ZM17.4862 15.068C17.4862 14.192 17.245 13.5861 16.7625 13.2503C16.28 12.8999 15.5854 12.7247 14.6789 12.7247H13.0779V19.0537H14.8544C15.7024 19.0537 16.3531 18.7252 16.8063 18.0682C17.2596 17.3966 17.4862 16.579 17.4862 15.6155V15.068ZM16.28 34.3614C15.1395 34.3614 13.6627 34.3322 11.8497 34.2738C10.0367 34.2154 8.73535 34.1789 7.9458 34.1643H5.84033V8.49812H9.63457C10.5557 8.49812 11.6084 8.46892 12.7928 8.41052C13.9771 8.33752 14.8324 8.30103 15.3588 8.30103C17.0695 8.30103 18.5097 8.43972 19.6794 8.71712C20.8637 8.99451 21.7922 9.4106 22.4648 9.96539C23.1374 10.5202 23.6125 11.1626 23.8904 11.8925C24.1828 12.6225 24.329 13.4912 24.329 14.4986C24.329 16.0461 23.9708 17.3747 23.2543 18.4843C22.5379 19.5939 21.4998 20.2873 20.14 20.5647C23.5906 20.8713 25.3159 22.8934 25.3159 26.6309C25.3159 27.7551 25.1478 28.777 24.8115 29.6968C24.4752 30.602 23.9562 31.4123 23.2543 32.1277C22.5671 32.8284 21.6314 33.3759 20.447 33.7701C19.2627 34.1643 17.8737 34.3614 16.28 34.3614Z" fill="#43310B"/>
<path d="M0.973772 2C4.05796 8.15923 13.2806 4.73744 14.3087 9.87013C7.01218 11.2389 6.79967 7.13272 2.34437 10.2123C3.3723 7.13272 0.630676 8.15923 0.973772 2Z" fill="#43310B" stroke="#43310B"/>
<path d="M26.7157 2C23.6315 8.15923 14.4089 4.73744 13.3808 9.87013C20.6773 11.2389 20.8898 7.13272 25.3451 10.2123C24.3171 7.13272 27.0588 8.15923 26.7157 2Z" fill="#43310B" stroke="#43310B"/>
<path d="M39.7571 31.3894C39.6694 31.5938 39.4866 31.8639 39.2088 32.1997C38.9456 32.5355 38.3927 33.2087 37.9541 33.6175C37.6114 33.2754 37.2266 31.6292 36.5833 31.9066C35.94 32.1986 34.4998 31.2223 33.8418 31.2223C31.7802 31.2223 29.9368 30.5196 30.0723 32.0526C29.195 30.8262 28.835 29.6521 28.835 26.7905V18.9943L28.0674 18.2059V15.6875H36.0287V28.1702C36.0141 28.8272 36.1237 29.3163 36.3577 29.6375C36.5916 29.9441 37.0156 30.0974 37.6297 30.0974C37.7175 30.0974 37.7979 30.0974 37.871 30.0974C37.9441 30.0828 38.0172 30.0682 38.0903 30.0536C38.1634 30.0244 38.2219 30.0025 38.2658 29.9879C38.3242 29.9733 38.39 29.9514 38.4631 29.9222C38.5362 29.8784 38.5947 29.8419 38.6386 29.8127C38.6825 29.7835 38.7409 29.747 38.8141 29.7032C38.8872 29.6448 38.9383 29.601 38.9676 29.5718C39.0114 29.5426 39.0699 29.4988 39.143 29.4404C39.2308 29.3674 39.2966 29.3163 39.3404 29.2871V18.9943L38.1561 18.2059V15.6875H46.5122V31.6875L42.7517 31.9066L39.7571 31.3894Z" fill="#43310B"/>
<path d="M26.9883 34.6451V30.1968H37.9543V33.6186C32.4713 31.2233 29.0444 31.2233 26.9883 34.6451Z" fill="#43310B"/>
<path d="M26.9883 34.6451V30.1968H37.9543V33.6186C32.4713 31.2233 29.0444 31.2233 26.9883 34.6451Z" stroke="#43310B"/>
<path d="M48.9204 34.6451V30.1968H37.9544V33.6186C43.4374 31.2233 46.8643 31.2233 48.9204 34.6451Z" fill="#43310B"/>
<path d="M48.9204 34.6451V30.1968H37.9544V33.6186C43.4374 31.2233 46.8643 31.2233 48.9204 34.6451Z" stroke="#43310B"/>
<path fill-rule="evenodd" clip-rule="evenodd" d="M61.5305 34.0002H54.4897L54.4904 19.24V15.3857V13.4804C54.4904 12.0058 54.6951 10.7284 55.1045 9.64799C55.5139 8.56762 56.0841 7.72813 56.8152 7.12955C57.5608 6.53096 58.3796 6.10027 59.2715 5.83748C60.1781 5.56008 61.1869 5.42139 62.2981 5.42139C63.2924 5.42139 64.2282 5.55278 65.1054 5.81558C65.9827 6.07837 66.531 6.31927 66.7503 6.53826L65.9169 9.86699C65.2151 9.51659 64.4913 9.3414 63.7457 9.3414C63.5556 9.3414 63.3801 9.356 63.2193 9.3852C62.0934 9.56039 61.5305 10.5167 61.5305 12.254V15.3857V19.24V34.0002Z" fill="#43310B"/>
<path d="M65.7115 17.0554H51.6613L50.2905 21.5038H63.6553L65.7115 17.0554Z" fill="#43310B" stroke="#43310B"/>
<path d="M87.3014 7.4753L89.7002 8.84402L89.0148 4.39568L91.7563 3.36914L92.7844 5.7644L89.7002 8.84402L92.7844 8.15966L92.099 10.8971L85.9307 15.6876L87.3014 7.4753Z" fill="#43310B"/>
<path fill-rule="evenodd" clip-rule="evenodd" d="M78.6653 34.0002H71.6245L71.6251 19.24V15.3857V13.4804C71.6251 12.0058 71.8298 10.7284 72.2392 9.64799C72.6486 8.56762 73.2189 7.72813 73.9499 7.12955C74.6956 6.53096 75.5144 6.10027 76.4063 5.83748C77.3128 5.56008 78.3217 5.42139 79.4329 5.42139C80.4272 5.42139 81.3629 5.55278 82.2402 5.81558C83.1175 6.07837 83.6658 6.31927 83.8851 6.53826L83.0517 9.86699C82.3499 9.51659 81.6261 9.3414 80.8804 9.3414C80.6903 9.3414 80.5149 9.356 80.3541 9.3852C79.2282 9.56039 78.6653 10.5167 78.6653 12.254V15.3857V19.24V34.0002Z" fill="#43310B"/>
<path d="M82.8462 17.0554H68.796L67.4253 21.5038H80.7901L82.8462 17.0554Z" fill="#43310B" stroke="#43310B"/>
<path d="M32.8992 38.2498V40.2181H33.957C34.3494 40.2181 34.656 40.123 34.8768 39.933C35.0975 39.7429 35.2079 39.4455 35.2079 39.0408C35.2079 38.6851 35.0791 38.4061 34.8216 38.2038C34.564 37.9953 34.2482 37.8911 33.8742 37.8911H33.3315C33.0433 37.8911 32.8992 38.0106 32.8992 38.2498ZM32.8992 43.0786C32.8992 43.3177 33.0433 43.4373 33.3315 43.4373H33.8926C34.3402 43.4373 34.7204 43.3269 35.0331 43.1062C35.3458 42.8793 35.5022 42.5574 35.5022 42.1404C35.5022 41.656 35.355 41.3003 35.0607 41.0735C34.7664 40.8466 34.3985 40.7332 33.957 40.7332H32.8992V43.0786ZM34.0766 43.9156H32.2186V38.3693C32.2186 38.1854 32.191 38.0474 32.1358 37.9554C32.0868 37.8635 32.0101 37.8052 31.9059 37.7807C31.8017 37.7562 31.7311 37.7286 31.6943 37.6979C31.6576 37.6672 31.6392 37.6243 31.6392 37.5691C31.6392 37.4649 31.7158 37.4128 31.8691 37.4128H33.9662C34.5855 37.4128 35.0668 37.5446 35.4102 37.8083C35.7536 38.0719 35.9253 38.4552 35.9253 38.958C35.9253 39.3198 35.8333 39.6325 35.6494 39.8962C35.4654 40.1537 35.2171 40.3315 34.9043 40.4296V40.448C35.3274 40.5339 35.6494 40.724 35.8701 41.0183C36.097 41.3065 36.2104 41.6805 36.2104 42.1404C36.2104 42.68 36.0326 43.1123 35.677 43.4373C35.3213 43.7561 34.7878 43.9156 34.0766 43.9156Z" fill="#43310B"/>
<path d="M37.6269 41.7081C37.6453 42.1987 37.7894 42.6095 38.0592 42.9406C38.329 43.2717 38.6969 43.4587 39.1629 43.5017C39.3346 43.5201 39.5155 43.5139 39.7056 43.4833C39.8956 43.4526 40.0796 43.3913 40.2574 43.2993C40.3371 43.2625 40.4046 43.2564 40.4598 43.2809C40.515 43.3054 40.5487 43.3392 40.5609 43.3821C40.5793 43.4434 40.5732 43.5047 40.5425 43.566C40.5119 43.6212 40.469 43.6642 40.4138 43.6948C40.2482 43.7929 40.0428 43.8696 39.7975 43.9248C39.5584 43.9738 39.2917 43.9891 38.9973 43.9707C38.4271 43.934 37.9335 43.7009 37.5165 43.2717C37.1057 42.8425 36.9003 42.2354 36.9003 41.4506C36.9003 40.7577 37.0842 40.2181 37.4521 39.8318C37.8262 39.4455 38.3075 39.2523 38.8962 39.2523C39.3867 39.2523 39.7975 39.4301 40.1287 39.7858C40.4659 40.1353 40.6345 40.6596 40.6345 41.3586V41.7081H37.6269ZM37.6269 41.2206H39.9631C39.9631 40.6872 39.8589 40.3039 39.6504 40.0709C39.4419 39.8379 39.1874 39.7214 38.887 39.7214C38.5436 39.7214 38.2493 39.8563 38.004 40.1261C37.7648 40.3959 37.6391 40.7607 37.6269 41.2206Z" fill="#43310B"/>
<path d="M42.3361 43.9156H41.6831V40.3285C41.6831 40.1445 41.6585 40.0065 41.6095 39.9146C41.5666 39.8226 41.496 39.7643 41.3979 39.7398C41.2998 39.7153 41.2293 39.6907 41.1864 39.6662C41.1435 39.6417 41.122 39.5988 41.122 39.5374C41.122 39.4271 41.2017 39.3719 41.3611 39.3719H42.0694C42.2472 39.3719 42.3361 39.47 42.3361 39.6662V40.2457C42.4036 40.0188 42.5538 39.8072 42.7868 39.611C43.0198 39.4025 43.2988 39.2983 43.6238 39.2983C43.9672 39.2983 44.24 39.4209 44.4424 39.6662C44.5589 39.8256 44.6417 40.0679 44.6907 40.3928C44.7582 40.1169 44.9023 39.8686 45.123 39.6478C45.356 39.4148 45.6503 39.2983 46.006 39.2983C46.3494 39.2983 46.6192 39.4271 46.8154 39.6846C47.0177 39.936 47.1189 40.3959 47.1189 41.0643V43.9156H46.4567V41.0735C46.4567 40.6626 46.4015 40.3591 46.2911 40.1629C46.1807 39.9667 46.0244 39.8686 45.822 39.8686C45.5829 39.8686 45.3407 40.0403 45.0954 40.3836C44.8563 40.7332 44.7367 41.2206 44.7367 41.8461V43.9156H44.0745V41.0735C44.0745 40.6565 44.0223 40.353 43.9181 40.1629C43.82 39.9667 43.6606 39.8686 43.4398 39.8686C43.2007 39.8686 42.9585 40.0403 42.7132 40.3836C42.4618 40.7332 42.3361 41.2206 42.3361 41.8461V43.9156Z" fill="#43310B"/>
<path d="M50.8072 37.7715C50.7275 37.747 50.6662 37.7224 50.6232 37.6979C50.5865 37.6734 50.5681 37.6305 50.5681 37.5691C50.5681 37.4649 50.6478 37.4128 50.8072 37.4128H51.6166L53.3918 42.8118L55.1577 37.4128H55.5256C55.6176 37.4128 55.6789 37.4404 55.7096 37.4956C55.7402 37.5446 55.7402 37.6121 55.7096 37.6979L53.6217 43.934H53.0882L51.2487 38.5073C51.169 38.262 51.1015 38.0873 51.0463 37.983C50.9912 37.8788 50.9114 37.8083 50.8072 37.7715Z" fill="#43310B"/>
<path d="M57.3008 43.9156H56.6202V40.3285C56.6202 40.1445 56.5987 40.0065 56.5558 39.9146C56.5128 39.8226 56.4393 39.7643 56.335 39.7398C56.2369 39.7153 56.1664 39.6907 56.1235 39.6662C56.0867 39.6356 56.0683 39.5926 56.0683 39.5374C56.0683 39.4271 56.1449 39.3719 56.2982 39.3719H57.0249C57.2088 39.3719 57.3008 39.47 57.3008 39.6662V43.9156ZM57.4112 37.7991C57.4112 37.9524 57.356 38.0842 57.2456 38.1946C57.1414 38.2988 57.0157 38.3509 56.8685 38.3509C56.7152 38.3509 56.5834 38.2988 56.473 38.1946C56.3687 38.0842 56.3166 37.9524 56.3166 37.7991C56.3166 37.6519 56.3687 37.5262 56.473 37.422C56.5834 37.3116 56.7152 37.2564 56.8685 37.2564C57.0157 37.2564 57.1414 37.3116 57.2456 37.422C57.356 37.5262 57.4112 37.6519 57.4112 37.7991Z" fill="#43310B"/>
<path d="M59.3151 43.9156H58.6712V40.3285C58.6712 40.1445 58.6467 40.0065 58.5977 39.9146C58.5486 39.8226 58.475 39.7643 58.3769 39.7398C58.2849 39.7153 58.2144 39.6907 58.1654 39.6662C58.1224 39.6417 58.101 39.5988 58.101 39.5374C58.101 39.4271 58.1807 39.3719 58.3401 39.3719H59.0483C59.2262 39.3719 59.3151 39.47 59.3151 39.6662V40.3285C59.4377 40.0464 59.6339 39.8042 59.9037 39.6018C60.1674 39.3995 60.4771 39.2983 60.8327 39.2983C61.1822 39.2983 61.4765 39.4332 61.7157 39.703C61.9548 39.9667 62.0744 40.4327 62.0744 41.1011V43.9156H61.4122V41.0551C61.4122 40.6381 61.3447 40.3407 61.2098 40.1629C61.0749 39.9851 60.891 39.8962 60.6579 39.8962C60.3268 39.8962 60.0233 40.0801 59.7474 40.448C59.4592 40.8221 59.3151 41.3341 59.3151 41.984V43.9156Z" fill="#43310B"/>
<path d="M63.7116 41.6621C63.7116 42.2385 63.822 42.6892 64.0427 43.0142C64.2696 43.3392 64.5516 43.5017 64.8889 43.5017C65.2139 43.5017 65.4837 43.3422 65.6983 43.0234C65.9129 42.6984 66.0202 42.2753 66.0202 41.7541V41.147C66.0202 40.724 65.9037 40.3898 65.6707 40.1445C65.4438 39.8931 65.171 39.7674 64.8521 39.7674C64.5271 39.7674 64.2543 39.9299 64.0335 40.2549C63.8189 40.5737 63.7116 41.0428 63.7116 41.6621ZM66.0294 43.3361C65.7412 43.7653 65.3488 43.9799 64.8521 43.9799C64.2757 43.9799 63.8281 43.7623 63.5092 43.3269C63.1904 42.8854 63.031 42.3213 63.031 41.6345C63.031 40.8987 63.1873 40.3193 63.5 39.8962C63.8189 39.4669 64.242 39.2523 64.7693 39.2523C65.3028 39.2523 65.7228 39.4271 66.0294 39.7766V38.1578C66.0294 37.9738 66.0049 37.8389 65.9558 37.7531C65.9129 37.6611 65.8424 37.6029 65.7443 37.5783C65.64 37.5538 65.5665 37.5293 65.5235 37.5048C65.4867 37.4741 65.4684 37.4281 65.4684 37.3668C65.4684 37.2625 65.5481 37.2104 65.7075 37.2104H66.4157C66.5935 37.2104 66.6825 37.3055 66.6825 37.4956V43.9156H66.0294V43.3361Z" fill="#43310B"/>
<path d="M67.7218 41.6161C67.7218 40.911 67.8996 40.3407 68.2553 39.9054C68.617 39.47 69.1106 39.2523 69.7361 39.2523C70.3615 39.2523 70.8521 39.47 71.2077 39.9054C71.5695 40.3407 71.7504 40.911 71.7504 41.6161C71.7504 42.3213 71.5695 42.8915 71.2077 43.3269C70.8521 43.7623 70.3615 43.9799 69.7361 43.9799C69.1106 43.9799 68.617 43.7623 68.2553 43.3269C67.8996 42.8915 67.7218 42.3213 67.7218 41.6161ZM68.4576 41.6161C68.4576 42.2416 68.5772 42.7137 68.8163 43.0326C69.0616 43.3514 69.3682 43.5109 69.7361 43.5109C70.104 43.5109 70.4075 43.3514 70.6467 43.0326C70.8919 42.7137 71.0146 42.2416 71.0146 41.6161C71.0146 40.9907 70.8919 40.5185 70.6467 40.1997C70.4075 39.8808 70.104 39.7214 69.7361 39.7214C69.3682 39.7214 69.0616 39.8808 68.8163 40.1997C68.5772 40.5185 68.4576 40.9907 68.4576 41.6161Z" fill="#43310B"/>
<path d="M72.9921 36.8977H73.9394L73.6819 42.076C73.6758 42.1435 73.6543 42.1956 73.6175 42.2324C73.5807 42.2692 73.5317 42.2876 73.4704 42.2876C73.409 42.2876 73.3569 42.2722 73.314 42.2416C73.2772 42.2048 73.2588 42.1496 73.2588 42.076L72.9921 36.8977ZM74.059 43.658C74.059 43.8236 74.0008 43.9646 73.8843 44.0811C73.7678 44.1976 73.6298 44.2559 73.4704 44.2559C73.3048 44.2559 73.1638 44.1976 73.0473 44.0811C72.9308 43.9646 72.8725 43.8236 72.8725 43.658C72.8725 43.4986 72.9308 43.3606 73.0473 43.2441C73.1638 43.1276 73.3048 43.0694 73.4704 43.0694C73.6298 43.0694 73.7678 43.1276 73.8843 43.2441C74.0008 43.3606 74.059 43.4986 74.059 43.658Z" fill="#43310B"/>
</svg>
