<svg width="24" height="15" viewBox="0 0 24 15" fill="none" xmlns="http://www.w3.org/2000/svg">
<path fill-rule="evenodd" clip-rule="evenodd" d="M18.1048 0.0912273C17.9952 0.17931 17.8357 0.47464 17.7505 0.747353C17.5727 1.31632 17.6199 1.30191 16.7794 1.04348C16.4271 0.935158 15.9574 0.846678 15.7355 0.846943C15.5137 0.847075 14.9401 0.750792 14.4609 0.632951C13.6581 0.435492 13.4681 0.435492 12.0396 0.632686C10.11 0.898919 9.44385 0.899448 6.84181 0.636919C4.29119 0.379547 4.13539 0.416976 2.78067 1.61178C1.29443 2.92284 0.907797 3.35069 0.642517 3.97799C0.30834 4.76835 0 6.37263 0 7.32157C0 8.07398 0.0180071 8.12067 0.309123 8.12067C0.565008 8.12067 0.632209 8.03523 0.699148 7.62471C0.743644 7.35199 0.785661 6.9502 0.792577 6.73197C0.802102 6.42884 0.847381 6.507 0.984262 7.06261C1.24628 8.12715 1.21705 8.48966 0.786444 9.5132C0.414296 10.3976 0.398376 10.5165 0.394984 12.4291C0.391591 14.3444 0.403335 14.4342 0.693407 14.7105C0.952815 14.9574 1.14646 14.998 2.06352 14.998C2.6511 14.998 3.13168 14.9659 3.13168 14.9266C3.13168 14.8873 3.01425 14.6219 2.87071 14.3367C2.68242 13.9626 2.60974 13.5572 2.60974 12.8806C2.60974 11.8141 2.69977 11.5927 3.71874 10.1532C4.10459 9.60829 4.43851 9.10651 4.46095 9.03827C4.48353 8.96989 4.96424 9.15954 5.52925 9.45963C6.8182 10.1443 7.60242 10.229 9.5947 9.89886C11.2163 9.63025 12.1361 9.6317 12.3396 9.90309C12.4162 10.0052 12.5526 10.7618 12.6427 11.5845C12.8332 13.3234 13.0282 14.4395 13.1984 14.7666C13.2988 14.9595 13.505 14.998 14.4386 14.998C15.6892 14.998 15.6199 15.0946 15.1964 13.94C14.9268 13.2049 14.991 10.8329 15.3002 10.1045C15.594 9.41295 16.2735 8.86131 17.159 8.59573C17.5896 8.46665 18.2567 8.18362 18.6413 7.96698L19.3409 7.57286L20.1622 7.86673L20.9835 8.16061L21.5609 7.81767C21.8785 7.62894 22.2149 7.38122 22.3083 7.26708C22.4017 7.15294 22.7305 6.94636 23.0389 6.80815C24.2313 6.27357 24.3306 4.91635 23.2449 3.99055C22.8041 3.61455 22.5327 3.12864 22.3238 2.34158C22.0103 1.16026 20.8813 0.911881 19.6162 1.74602C18.8709 2.23736 18.7949 2.17017 18.7921 1.0165C18.7905 0.351509 18.7437 0.169391 18.5471 0.0627922C18.3778 -0.0291263 18.2439 -0.0205297 18.1048 0.0912273ZM8.22067 1.5114C9.45534 1.62593 10.081 1.6102 11.752 1.42266C13.6598 1.2084 13.8303 1.20814 14.5661 1.41737C14.9969 1.53984 15.5676 1.64009 15.8343 1.64009C16.4653 1.64009 17.1811 1.94798 17.2668 2.25627C17.3041 2.39011 17.3311 2.74245 17.3268 3.03897C17.3225 3.34157 17.4192 3.73292 17.5471 3.93064C17.6724 4.12453 17.7407 4.37357 17.6988 4.48414C17.4782 5.06686 18.2918 5.74005 19.2167 5.74005C20.134 5.74005 20.8518 5.02176 20.257 4.69919C20.0908 4.60899 19.9433 4.64403 19.7207 4.82681C19.3645 5.1191 19.1885 5.13656 18.731 4.92521C18.2718 4.7132 18.3146 4.59457 18.888 4.48943C19.1572 4.44009 19.5828 4.26499 19.834 4.10046C20.4023 3.72816 21.0657 3.49168 21.5421 3.49168C21.9171 3.49168 22.2185 3.76611 21.9449 3.85856C21.8605 3.88713 21.7913 4.08406 21.7913 4.2962C21.7913 4.66493 21.8171 4.68199 22.3751 4.68199C22.8806 4.68199 22.9836 4.73079 23.1424 5.0457C23.3728 5.50278 23.2193 5.97083 22.8082 6.06553C22.6436 6.10336 22.186 6.14978 21.7913 6.16869C21.121 6.2007 21.071 6.22622 21.0334 6.55541C21.0045 6.80921 21.0593 6.92202 21.2292 6.958C21.4365 7.00204 21.4283 7.02862 21.1613 7.17781C20.91 7.31813 20.7739 7.31364 20.3754 7.15202C19.6708 6.86634 19.1703 6.85193 18.6988 7.10401C18.1527 7.39577 18.1176 7.38797 18.2145 6.99649C18.2825 6.72205 18.2496 6.66584 18.0213 6.66584C17.87 6.66584 17.7051 6.6624 17.6547 6.65804C17.6044 6.65381 17.4872 6.91462 17.3943 7.23772C17.2822 7.62722 17.1372 7.84835 16.9638 7.89438C16.7206 7.95879 16.7023 7.89914 16.7023 7.04264C16.7023 6.2499 16.4951 4.94651 16.369 4.94651C16.3463 4.94651 16.178 5.0043 15.9949 5.07479C15.7162 5.18219 15.6801 5.25228 15.7731 5.50463C15.984 6.07611 16.0668 7.3012 15.9294 7.8182C15.8544 8.10056 15.6107 8.50739 15.3875 8.72217C14.8084 9.27977 14.5113 9.94145 14.3413 11.0524C14.195 12.0073 14.2349 13.52 14.4183 13.973C14.493 14.1578 14.4448 14.2045 14.1795 14.2045C13.9967 14.2045 13.8161 14.1537 13.7782 14.0917C13.6932 13.9523 13.5013 12.5991 13.3067 10.7658C13.1088 8.90283 13.1031 8.87995 12.7256 8.46731C12.4761 8.19433 12.3962 7.96447 12.3962 7.51863C12.3962 6.94729 12.3844 6.93036 11.9865 6.93036H11.5768L11.6519 7.66795C11.6932 8.07372 11.8196 8.54878 11.9326 8.72376L12.1383 9.04184L11.5823 8.96804C11.2764 8.92743 10.5047 8.98801 9.86728 9.10267C9.22986 9.21721 8.30366 9.31098 7.80885 9.31098C7.03989 9.31098 6.77709 9.24353 5.99939 8.84649L5.08951 8.38214L5.49154 7.8215C6.00957 7.09912 6.2357 6.54351 6.34192 5.73238L6.42752 5.07876H6.03736C5.66717 5.07876 5.64342 5.11209 5.57087 5.7329C5.47718 6.53478 5.24087 7.0154 4.61427 7.678C3.86332 8.47207 1.97714 11.3836 1.88253 11.8947C1.83582 12.1476 1.82081 12.7736 1.84939 13.2858L1.90132 14.217L1.50517 14.1776L1.10914 14.1383L1.07247 12.5137C1.03633 10.9118 1.04246 10.8724 1.51156 9.69783L1.98744 8.50659L1.71107 6.82574C1.55906 5.90127 1.43483 4.98248 1.43496 4.78383C1.43562 4.19158 1.82877 3.37596 2.26577 3.06079C2.49086 2.89838 3.05665 2.41498 3.52301 1.9866L4.37105 1.20774L5.54556 1.28987C6.1916 1.3351 7.39534 1.43482 8.22067 1.5114ZM21.5258 2.29264C21.7026 2.62765 21.6962 2.69814 21.4888 2.69814C21.1006 2.69814 19.9713 3.11528 19.5211 3.42489C18.7157 3.97891 18.0072 3.76836 18.0072 2.97522C18.0072 2.48058 18.1485 2.37186 18.325 2.73081C18.5533 3.1949 18.8775 3.15958 19.733 2.57739C20.6323 1.96531 21.2971 1.85976 21.5258 2.29264Z" fill="#404040"/>
</svg>
