<svg width="20" height="21" viewBox="0 0 20 21" fill="none" xmlns="http://www.w3.org/2000/svg">
<g clip-path="url(#clip0_412_1378)">
<path d="M11.3447 3.22727C11.3447 2.4114 10.6833 1.75 9.86742 1.75H8.88258C8.0667 1.75 7.4053 2.4114 7.4053 3.22727V3.93093C7.4053 4.36963 6.87489 4.58933 6.56468 4.27912L6.06714 3.78158C5.49023 3.20467 4.55487 3.20467 3.97796 3.78158L3.28157 4.47797C2.70465 5.05488 2.70465 5.99024 3.28157 6.56715L3.7791 7.06468C4.08931 7.37489 3.86961 7.9053 3.4309 7.9053L2.72727 7.9053C1.9114 7.9053 1.25 8.5667 1.25 9.38257L1.25 10.3674C1.25 11.1833 1.9114 11.8447 2.72727 11.8447H3.43087C3.86958 11.8447 4.08928 12.3751 3.77907 12.6853L3.28156 13.1828C2.70465 13.7597 2.70465 14.6951 3.28156 15.272L3.97795 15.9684C4.55486 16.5453 5.49022 16.5453 6.06713 15.9684L6.56468 15.4708C6.87489 15.1606 7.4053 15.3803 7.4053 15.819V16.5227C7.4053 17.3386 8.0667 18 8.88258 18H9.86742C10.6833 18 11.3447 17.3386 11.3447 16.5227V15.8191C11.3447 15.3804 11.8751 15.1607 12.1853 15.4709L12.6829 15.9685C13.2598 16.5454 14.1951 16.5454 14.7721 15.9685L15.4684 15.2721C16.0454 14.6952 16.0454 13.7598 15.4684 13.1829L14.9709 12.6853C14.6607 12.3751 14.8804 11.8447 15.3191 11.8447H16.0227C16.8386 11.8447 17.5 11.1833 17.5 10.3674V9.38258C17.5 8.5667 16.8386 7.9053 16.0227 7.9053L15.319 7.9053C14.8803 7.9053 14.6606 7.37489 14.9708 7.06468L15.4684 6.56709C16.0453 5.99018 16.0453 5.05482 15.4684 4.47791L14.772 3.78152C14.1951 3.20461 13.2598 3.20461 12.6829 3.78152L12.1853 4.27907C11.8751 4.58928 11.3447 4.36957 11.3447 3.93087V3.22727Z" stroke="#404040" stroke-width="1.50926" stroke-linejoin="round"/>
<path d="M12.0833 9.875C12.0833 11.3708 10.8708 12.5833 9.375 12.5833C7.87923 12.5833 6.66667 11.3708 6.66667 9.875C6.66667 8.37923 7.87923 7.16667 9.375 7.16667C10.8708 7.16667 12.0833 8.37923 12.0833 9.875Z" stroke="#404040" stroke-width="1.50926" stroke-linejoin="round"/>
</g>
<defs>
<clipPath id="clip0_412_1378">
<rect width="20" height="20" fill="white" transform="translate(0 0.5)"/>
</clipPath>
</defs>
</svg>
