<svg width="20" height="21" viewBox="0 0 20 21" fill="none" xmlns="http://www.w3.org/2000/svg">
<g clip-path="url(#clip0_367_868)">
<path d="M13.25 4.95076C13.25 6.71849 11.7949 8.15152 10 8.15152C8.20507 8.15152 6.75 6.71849 6.75 4.95076C6.75 3.18303 8.20507 1.75 10 1.75C11.7949 1.75 13.25 3.18303 13.25 4.95076Z" stroke="#404040" stroke-width="1.50926" stroke-linejoin="round"/>
<path d="M3.75 16.3996C3.75 13.748 5.93261 11.5985 8.625 11.5985H11.375C14.0674 11.5985 16.25 13.748 16.25 16.3996C16.25 17.2835 15.5225 18 14.625 18H5.375C4.47754 18 3.75 17.2835 3.75 16.3996Z" stroke="#404040" stroke-width="1.50926" stroke-linejoin="round"/>
</g>
<defs>
<clipPath id="clip0_367_868">
<rect width="20" height="20" fill="white" transform="translate(0 0.5)"/>
</clipPath>
</defs>
</svg>
